<svg xmlns="http://www.w3.org/2000/svg" viewBox="0 0 3560 880"><defs><style>.cls-1{fill:#1c242f;}</style></defs><g id="Logotype"><path class="cls-1" d="M460.83,50.89H106.11L70.19,829.11H477.68S866.28,862.81,882.62,440,561.43,54.47,460.83,50.89ZM683.32,437.6c-13,169.86-123.64,209.61-166.49,218.67a121.47,121.47,0,0,1-25.16,2.59l-186.53.08,24.6-442.52,162.6-.08C537.89,218.37,701.71,197.77,683.32,437.6Z"/><path class="cls-1" d="M1015.38,50.89,979.13,829.11l233.36.63L1237,216.34h113.47a73.57,73.57,0,0,1,33.36,7.76c17.9,9.09,37.66,28.64,32.4,70.37-4.16,33.09-23.42,54.12-43.25,67.22a123.25,123.25,0,0,1-68,20.1h-32.71l116.43,157.78s249.7-.51,264-265c0,0,21.79-215.49-236.94-223.66Z"/><polygon class="cls-1" points="1660.83 50.89 1930.96 829.11 2216.06 829.11 2608.06 50.89 2360.4 50.89 2091.04 634.13 1907.21 50.89 1660.83 50.89"/><polygon class="cls-1" points="2667.81 51.05 2626.93 829.27 2882.09 829.27 2922.68 51.05 2667.81 51.05"/><polygon class="cls-1" points="3218.28 51.37 2954.62 420.22 3196.96 829.58 3487.64 829.58 3205 420.22 3485.34 51.37 3218.28 51.37"/></g></svg>
